<svg xmlns="http://www.w3.org/2000/svg" fill-rule="evenodd" viewBox="0 0 100 100">
    <path d="m66.5 24.13 3-13.71a1.5 1.5 0 0 0-2.26-1.6s-3.11 1.89-9.24 1.89c-2.78 0-4.47-1.25-6.42-2.7-2.21-1.65-4.72-3.51-9-3.51-8.16 0-10.86 4.67-11 4.87a1.5 1.5 0 0 0-.15 1.05l3 13.71C30.41 29.28 3 64.94 16 81.06 26 93.5 41.19 93.49 50.2 93.5h.92c9.08 0 24-.14 33.9-12.44C98 64.94 70.59 29.28 66.5 24.13Zm16.19 55c-9 11.19-23 11.32-31.58 11.32h-.91c-8.51 0-22.76 0-31.88-11.32-6.25-7.71-.9-21.76 4.68-32.13a154.6 154.6 0 0 1 14.26-21.5 1.5 1.5 0 0 0 .3-1.27l-3-13.75c.76-.88 3.06-2.93 8-2.93 3.28 0 5.19 1.42 7.21 2.92s4.43 3.29 8.21 3.29a26.65 26.65 0 0 0 8-1.12l-2.56 11.6a1.5 1.5 0 0 0 .3 1.27A154.42 154.42 0 0 1 78 46.92c5.57 10.43 10.94 24.49 4.69 32.26Z"/>
    <path d="M58.5 53.5a1.5 1.5 0 0 0 3 0c0-4.53-3.92-8.27-9-8.9v-2.1a1.5 1.5 0 0 0-3 0v2.1c-5.08.63-9 4.37-9 8.9s3.92 8.26 9 8.89v12c-3.42-.56-6-3-6-5.88a1.5 1.5 0 0 0-3 0c0 4.53 3.92 8.28 9 8.9v2.1a1.5 1.5 0 0 0 3 0V77.4c5.08-.63 9-4.38 9-8.9s-3.92-8.27-9-8.89v-12c3.42.57 6 2.99 6 5.89Zm-15 0c0-2.9 2.58-5.32 6-5.88v11.76c-3.42-.56-6-2.98-6-5.88Zm15 15c0 2.9-2.58 5.33-6 5.88V62.62c3.42.56 6 2.98 6 5.87ZM41.58 26.44a33.42 33.42 0 0 0 8.92 1.06 33.42 33.42 0 0 0 8.92-1.06 1.5 1.5 0 1 0-.84-2.88 30.84 30.84 0 0 1-8.08.94 30.84 30.84 0 0 1-8.08-.94 1.5 1.5 0 0 0-.84 2.88Z"/>
</svg>
